# xmcd CD database file
#
# Track frame offsets:
#	150
#	131825
#	287720
#
# Disc length: 4495 seconds
#
# Revision: 0
# Processed by: cddbd v1.5.1PL0 Copyright (c) Steve Scherf et al.
# Submitted via: CDex 1.51
#
DISCID=2a118d03
DTITLE=Keith Jarrett - After Koln
DYEAR=1975
DGENRE=Jazz
TTITLE0=Part I
TTITLE1=Part II
TTITLE2=Treasure Island
EXTD=YEAR: 1975
EXTT0=
EXTT1=
EXTT2=
PLAYORDER=
